<svg width="18" height="19" viewBox="0 0 18 19" fill="none" xmlns="http://www.w3.org/2000/svg">
<path d="M1.125 6.91504V13.35C1.125 13.9468 1.36205 14.5191 1.78401 14.941C2.20597 15.363 2.77826 15.6 3.375 15.6H14.625C15.2217 15.6 15.794 15.363 16.216 14.941C16.6379 14.5191 16.875 13.9468 16.875 13.35V6.91504L10.179 11.0348C9.82443 11.2529 9.4163 11.3684 9 11.3684C8.5837 11.3684 8.17557 11.2529 7.821 11.0348L1.125 6.91504Z" fill="#9E38FE"/>
<path d="M1.125 6.91504V13.35C1.125 13.9468 1.36205 14.5191 1.78401 14.941C2.20597 15.363 2.77826 15.6 3.375 15.6H14.625C15.2217 15.6 15.794 15.363 16.216 14.941C16.6379 14.5191 16.875 13.9468 16.875 13.35V6.91504L10.179 11.0348C9.82443 11.2529 9.4163 11.3684 9 11.3684C8.5837 11.3684 8.17557 11.2529 7.821 11.0348L1.125 6.91504Z" fill="url(#paint0_linear_607_1628)"/>
<path d="M16.875 5.59311V5.47461C16.875 4.87787 16.6379 4.30558 16.216 3.88362C15.794 3.46166 15.2217 3.22461 14.625 3.22461H3.375C2.77826 3.22461 2.20597 3.46166 1.78401 3.88362C1.36205 4.30558 1.125 4.87787 1.125 5.47461V5.59311L8.4105 10.0766C8.58778 10.1857 8.79185 10.2434 9 10.2434C9.20815 10.2434 9.41222 10.1857 9.5895 10.0766L16.875 5.59311Z" fill="#9E38FE"/>
<path d="M16.875 5.59311V5.47461C16.875 4.87787 16.6379 4.30558 16.216 3.88362C15.794 3.46166 15.2217 3.22461 14.625 3.22461H3.375C2.77826 3.22461 2.20597 3.46166 1.78401 3.88362C1.36205 4.30558 1.125 4.87787 1.125 5.47461V5.59311L8.4105 10.0766C8.58778 10.1857 8.79185 10.2434 9 10.2434C9.20815 10.2434 9.41222 10.1857 9.5895 10.0766L16.875 5.59311Z" fill="url(#paint1_linear_607_1628)"/>
<defs>
<linearGradient id="paint0_linear_607_1628" x1="44.1835" y1="11.2575" x2="-6.05141" y2="11.2575" gradientUnits="userSpaceOnUse">
<stop stop-color="#2CD9FF"/>
<stop offset="1" stop-color="#AD00FF"/>
</linearGradient>
<linearGradient id="paint1_linear_607_1628" x1="44.1835" y1="6.73402" x2="-6.05141" y2="6.73402" gradientUnits="userSpaceOnUse">
<stop stop-color="#2CD9FF"/>
<stop offset="1" stop-color="#AD00FF"/>
</linearGradient>
</defs>
</svg>
