<svg width="20" height="21" viewBox="0 0 20 21" fill="none" xmlns="http://www.w3.org/2000/svg">
<path d="M10 2.21934C12.6506 2.21934 13.0121 2.21934 14.0964 2.21934C15.0602 2.21934 15.5422 2.4603 15.9036 2.58078C16.3855 2.82175 16.747 2.94223 17.1084 3.30368C17.4699 3.66512 17.7108 4.02657 17.8313 4.5085C17.9518 4.86994 18.0723 5.35187 18.1928 6.31573C18.1928 7.40006 18.1928 7.64103 18.1928 10.4121C18.1928 13.1832 18.1928 13.4242 18.1928 14.5085C18.1928 15.4724 17.9518 15.9543 17.8313 16.3157C17.5904 16.7977 17.4699 17.1591 17.1084 17.5205C16.747 17.882 16.3855 18.123 15.9036 18.2434C15.5422 18.3639 15.0602 18.4844 14.0964 18.6049C13.0121 18.6049 12.7711 18.6049 10 18.6049C7.22892 18.6049 6.98795 18.6049 5.90362 18.6049C4.93976 18.6049 4.45783 18.3639 4.09639 18.2434C3.61446 18.0025 3.25301 17.882 2.89157 17.5205C2.53012 17.1591 2.28916 16.7977 2.16868 16.3157C2.04819 15.9543 1.92771 15.4724 1.80723 14.5085C1.80723 13.4242 1.80723 13.1832 1.80723 10.4121C1.80723 7.64103 1.80723 7.40006 1.80723 6.31573C1.80723 5.35187 2.04819 4.86994 2.16868 4.5085C2.40964 4.02657 2.53012 3.66512 2.89157 3.30368C3.25301 2.94223 3.61446 2.70127 4.09639 2.58078C4.45783 2.4603 4.93976 2.33982 5.90362 2.21934C6.98795 2.21934 7.3494 2.21934 10 2.21934ZM10 0.412109C7.22892 0.412109 6.98795 0.412109 5.90362 0.412109C4.81928 0.412109 4.09639 0.653074 3.49398 0.894038C2.89157 1.135 2.28916 1.49645 1.68675 2.09886C1.08434 2.70127 0.843374 3.18319 0.481928 3.90609C0.240965 4.5085 0.120482 5.23139 0 6.31573C0 7.40006 0 7.76151 0 10.4121C0 13.1832 0 13.4242 0 14.5085C0 15.5928 0.240965 16.3157 0.481928 16.9181C0.722892 17.5205 1.08434 18.123 1.68675 18.7254C2.28916 19.3278 2.77109 19.5687 3.49398 19.9302C4.09639 20.1712 4.81928 20.2916 5.90362 20.4121C6.98795 20.4121 7.3494 20.4121 10 20.4121C12.6506 20.4121 13.0121 20.4121 14.0964 20.4121C15.1807 20.4121 15.9036 20.1712 16.506 19.9302C17.1084 19.6892 17.7108 19.3278 18.3133 18.7254C18.9157 18.123 19.1566 17.641 19.5181 16.9181C19.759 16.3157 19.8795 15.5928 20 14.5085C20 13.4242 20 13.0627 20 10.4121C20 7.76151 20 7.40006 20 6.31573C20 5.23139 19.759 4.5085 19.5181 3.90609C19.2771 3.30368 18.9157 2.70127 18.3133 2.09886C17.7108 1.49645 17.2289 1.25548 16.506 0.894038C15.9036 0.653074 15.1807 0.532591 14.0964 0.412109C13.0121 0.412109 12.7711 0.412109 10 0.412109Z" fill="white"/>
<path d="M10 5.23139C7.10843 5.23139 4.81928 7.52054 4.81928 10.4121C4.81928 13.3037 7.10843 15.5928 10 15.5928C12.8916 15.5928 15.1807 13.3037 15.1807 10.4121C15.1807 7.52054 12.8916 5.23139 10 5.23139ZM10 13.7856C8.19277 13.7856 6.62651 12.3398 6.62651 10.4121C6.62651 8.60488 8.07229 7.03862 10 7.03862C11.8072 7.03862 13.3735 8.4844 13.3735 10.4121C13.3735 12.2193 11.8072 13.7856 10 13.7856Z" fill="white"/>
<path d="M15.3012 6.31573C15.9666 6.31573 16.506 5.77631 16.506 5.11091C16.506 4.4455 15.9666 3.90609 15.3012 3.90609C14.6358 3.90609 14.0964 4.4455 14.0964 5.11091C14.0964 5.77631 14.6358 6.31573 15.3012 6.31573Z" fill="white"/>
</svg>
