<?xml version="1.0" encoding="utf-8"?>
<!-- Generator: Adobe Illustrator 16.0.0, SVG Export Plug-In . SVG Version: 6.00 Build 0)  -->
<!DOCTYPE svg PUBLIC "-//W3C//DTD SVG 1.1//EN" "http://www.w3.org/Graphics/SVG/1.1/DTD/svg11.dtd">
<svg version="1.1" id="Layer_1" xmlns="http://www.w3.org/2000/svg" xmlns:xlink="http://www.w3.org/1999/xlink" x="0px" y="0px"
	 width="1003.534px" height="496.935px" viewBox="119.632 1513.065 1003.534 496.935"
	 enable-background="new 119.632 1513.065 1003.534 496.935" xml:space="preserve">
<linearGradient id="SVGID_1_" gradientUnits="userSpaceOnUse" x1="958.5649" y1="927.7642" x2="20.065" y2="649.2645" gradientTransform="matrix(1 0 0 -1 8.3398 1986.04)">
	<stop  offset="0" style="stop-color:#E9E9E9;stop-opacity:0"/>
	<stop  offset="0.3322" style="stop-color:#D9D9D9"/>
	<stop  offset="0.9596" style="stop-color:#CECECE;stop-opacity:0"/>
</linearGradient>
<path fill="none" stroke="url(#SVGID_1_)" stroke-width="2" stroke-miterlimit="10" d="M1672.74,0.644
	c-287.38,367.405-374.25,683.296-396.58,913.579c-18.6,191.987,15.22,246.587-29.32,407.527
	c-96.65,349.22-437.586,748.399-754.471,679.2c-156.098-34.09-186.413-174-364.383-369.23
	c-160.1-175.63-433.571-386.42-924.868-503.439 M1700.14,49.831c-289.409,340.25-381.069,643.167-409.38,862.96
	c-23.79,184.969-2.109,240.929-54.06,403.819c-108.99,341.71-427.405,719.64-737.272,663.26
	c-159.606-29.03-202.231-159.13-388.225-348.86c-163.75-167.04-436.815-371.76-921.078-489.25 M1727.53,99.012
	c-291.41,313.097-388.011,603.179-422.19,812.358c-29.12,178.2-19.24,235.15-78.81,400.109
	c-120.66,334.141-417.642,691.57-720.073,647.341c-163.385-23.9-217.798-144.28-412.062-328.5
	C-72.774,1471.8-345.654,1273.24-822.896,1155.3 M1754.93,148.2c-293.43,285.943-395.119,563.343-434.979,761.79
	c-34.521,171.59-36.17,229.28-103.61,396.37c-131.729,326.59-408.246,664.22-702.872,631.41
	C346.074,1919.13,280.345,1808.35,77.564,1629.63c-170.298-150.09-443.281-342.4-913.465-460.82 M1782.33,197.382
	c-295.49,258.798-402.46,523.648-447.82,711.155c-39.99,165.272-52.91,223.463-128.3,392.673
	c-142.2,319.061-399.166,637.59-685.672,615.47c-171.652-13.25-248.222-114.62-459.747-287.77
	c-173.216-141.78-446.523-327.72-909.641-446.58 M1809.72,246.563c-297.47,231.63-410.04,484.103-460.63,660.554
	c-45.63,159.153-69.37,217.573-153.05,388.963c-152.13,311.62-390.34,611.66-668.46,599.54
	c-176.102-7.68-263.044-99.94-483.592-267.41c-175.91-133.61-449.756-313.03-905.862-432.41 M1837.12,295.744
	c-299.51,204.442-417.97,444.662-473.45,609.952c-51.45,153.254-85.65,211.733-177.79,385.254
	c-161.59,304.3-381.719,586.42-651.261,583.609c-180.702-1.899-277.721-85.34-507.432-247.039
	c-178.413-125.591-453.019-298.351-902.057-418.211 M1864.49,344.947c-301.51,177.311-426.25,405.328-486.271,559.344
	c-57.5,147.579-101.739,205.959-202.52,381.539c-170.601,297.13-373.266,561.84-634.069,567.67
	c-185.438,4.15-292.142-70.89-531.273-226.67c-180.688-117.73-456.185-283.67-898.231-404.01 M1891.91,394.112
	c-303.521,150.159-434.98,366.054-499.08,508.75c-63.86,142.098-117.561,200.268-227.27,377.817
	c-179.229,290.141-364.906,537.91-616.86,551.75C358.41,1842.9,242.317,1775.771-6.42,1626.12
	c-182.87-110.021-459.458-269.01-894.494-389.78 M1919.3,443.273c-305.55,123.01-444.18,326.783-511.899,458.147
	c-70.49,136.739-133.25,194.629-252.011,374.109c-187.48,283.3-356.573,514.52-599.663,535.81
	c-195.157,17.09-320.451-42.62-578.962-185.939c-184.885-102.5-462.697-254.32-890.655-375.591 M1946.7,492.482
	c-307.59,95.869-453.89,287.462-524.71,407.544c-77.54,131.474-148.73,189.144-276.76,370.384
	c-195.447,276.68-348.25,491.71-582.452,519.89c-200.065,24.07-334.366-28.83-602.81-165.58
	c-186.779-95.149-465.928-239.64-886.848-361.37 M1974.1,541.663c-309.58,68.691-464.14,248.021-537.529,356.943
	c-85.03,126.203-164.061,183.823-301.5,366.674c-203.169,270.26-339.909,469.39-565.254,503.949
	c-204.94,31.44-348.152-15.279-626.647-145.199c-188.596-87.99-469.168-224.971-883.051-347.19 M2001.5,590.851
	c-311.6,41.532-474.9,208.366-550.35,306.342c-93.021,120.787-179.16,178.617-326.25,362.958
	c-210.669,264.05-331.475,447.52-548.053,488.02c-209.719,39.22-361.825-2.02-650.483-124.84
	c-190.339-81-472.4-210.29-879.253-332.98 M2028.9,640.032c-313.631,14.383-486.16,168.443-563.17,255.74
	C1364.2,1010.87,1271.59,1069.37,1114.76,1255.01c-218.009,258.04-322.967,426.03-530.855,472.09
	c-214.434,47.48-375.43,10.96-674.33-104.479c-192.06-74.17-475.656-195.62-875.449-318.75 M2056.29,689.212
	c-315.64-12.776-497.82,128.164-575.95,205.123c-110.6,108.936-208.99,168.765-375.74,355.535
	c-225.193,252.24-314.251,404.95-513.644,456.16c-218.947,56.22-388.981,23.64-698.184-84.141
	c-193.727-67.52-478.873-180.93-871.649-304.56 M2083.689,738.4C1766,698.484,1573.85,825.854,1494.9,892.93
	c-120.19,102.101-223.711,164.11-400.48,351.82c-232.25,246.66-305.391,384.17-496.449,440.229
	c-223.232,65.49-402.483,36.041-722.014-63.75c-195.42-61.029-482.109-166.25-867.844-290.359 M2111.05,787.601
	c-319.67-67.088-508.88,71.24-601.6,103.937c-151.681,53.471-238.311,159.643-425.23,348.103
	c-239.253,241.24-296.272,363.631-479.211,424.271c-227.216,75.35-416.013,48.1-745.857-43.38
	c-197.107-54.67-485.341-151.57-864.032-276.12 M2138.48,836.763c-321.69-94.235-524.631,25.871-614.42,53.335
	c-157.381,48.14-252.801,155.362-449.971,344.393c-246.229,236.1-286.937,343.359-462.044,408.359
	c-230.854,85.75-429.546,59.88-769.708-23.029c-198.841-48.46-488.576-136.9-860.238-261.95 M2165.88,885.951
	c-323.72-121.403-539.86-20.84-627.24,2.726c-163.109,43.997-267.189,151.283-474.7,340.713
	C810.784,1460.44,786.618,1552.57,619.108,1621.82c-234.069,96.77-443.128,71.359-793.547-2.65
	c-200.614-42.37-491.822-122.229-856.441-247.75 M2193.27,935.132c-325.729-148.555-558.01-80.405-640.06-47.871
	c-161.57,64.129-281.521,147.39-499.44,336.989c-260.076,226.229-267.391,303.13-427.638,376.49
	c-236.78,108.38-456.778,82.52-817.408,17.7c-202.453-36.4-495.046-107.53-852.624-233.54 M2220.67,984.313
	c-327.74-175.709-569.38-123.554-652.859-98.471c-171.65,51.574-295.791,143.688-524.2,333.268
	c-266.984,221.569-257.106,283.149-410.434,360.56c-238.916,120.63-470.481,93.49-841.232,38.08
	c-204.37-30.54-498.281-92.85-848.835-219.33 M2248.07,1033.5C1918.3,830.637,1667.98,866.436,1582.39,884.422
	c-181.13,38.037-310,140.168-548.95,329.548c-273.92,217.08-246.469,263.181-393.234,344.63
	c-240.441,133.421-484.283,104.15-865.074,58.45c-206.332-24.76-501.514-78.189-845.041-205.14"/>
</svg>
