<?xml version="1.0" encoding="utf-8"?>
<!-- Generator: Adobe Illustrator 16.0.0, SVG Export Plug-In . SVG Version: 6.00 Build 0)  -->
<!DOCTYPE svg PUBLIC "-//W3C//DTD SVG 1.1//EN" "http://www.w3.org/Graphics/SVG/1.1/DTD/svg11.dtd">
<svg version="1.1" id="Layer_1" xmlns="http://www.w3.org/2000/svg" xmlns:xlink="http://www.w3.org/1999/xlink" x="0px" y="0px"
	 width="745.919px" height="418.167px" viewBox="1144.081 1077.833 745.919 418.167"
	 enable-background="new 1144.081 1077.833 745.919 418.167" xml:space="preserve">
<linearGradient id="SVGID_1_" gradientUnits="userSpaceOnUse" x1="1398.7227" y1="838.334" x2="2063.553" y2="532.2119" gradientTransform="matrix(1 0 0 -1 8.3398 1472.04)">
	<stop  offset="0" style="stop-color:#DFDFDF;stop-opacity:0"/>
	<stop  offset="0.4201" style="stop-color:#E9E9E9"/>
	<stop  offset="0.9596" style="stop-color:#CECECE;stop-opacity:0"/>
</linearGradient>
<path fill="none" stroke="url(#SVGID_1_)" stroke-width="2" stroke-miterlimit="10" d="M576.815-513.356
	C864.194-145.951,951.064,169.94,973.394,400.223c18.605,191.982-15.221,246.592,29.316,407.525
	c96.66,349.231,437.59,748.402,754.479,679.202c156.091-34.09,186.41-174,364.381-369.23
	c160.1-175.628,433.569-386.417,924.869-503.442 M549.415-464.169c289.405,340.25,381.072,643.168,409.378,862.96
	c23.795,184.973,2.109,240.926,54.067,403.817c108.979,341.712,427.399,719.642,737.27,663.262
	c159.601-29.03,202.23-159.13,388.22-348.86c163.75-167.039,436.82-371.758,921.08-489.251 M522.02-414.988
	C813.438-101.891,910.03,188.191,944.212,397.371c29.118,178.202,19.239,235.154,78.808,400.108
	c120.67,334.141,417.65,691.57,720.08,647.341c163.381-23.9,217.801-144.28,412.061-328.5
	c167.17-158.518,440.05-357.083,917.29-475.019 M494.621-365.8C788.053-79.855,889.743,197.543,929.607,395.99
	c34.519,171.594,36.169,229.276,103.612,396.371c131.72,326.589,408.24,664.219,702.87,631.409
	c167.391-18.641,233.12-129.421,435.9-308.141c170.3-150.095,443.279-342.396,913.47-460.821 M467.228-316.618
	C762.716-57.82,869.688,207.03,915.048,394.538c39.99,165.268,52.907,223.466,128.292,392.674
	c142.21,319.059,399.17,637.588,685.68,615.468c171.65-13.25,248.221-114.62,459.74-287.77
	c173.221-141.779,446.53-327.715,909.641-446.583 M439.832-267.437c297.476,231.63,410.044,484.103,460.635,660.554
	c45.631,159.149,69.366,217.578,153.043,388.96c152.141,311.623,390.34,611.663,668.46,599.543
	c176.11-7.68,263.05-99.94,483.601-267.41c175.91-133.605,449.75-313.034,905.859-432.41 M412.438-218.256
	C711.946-13.813,830.4,226.406,885.887,391.697c51.445,153.258,85.646,211.73,177.783,385.25
	c161.59,304.304,381.72,586.424,651.27,583.613c180.7-1.899,277.721-85.34,507.431-247.039
	c178.41-125.59,453.02-298.348,902.05-418.211 M385.064-169.053C686.576,8.258,811.318,236.274,871.332,390.291
	c57.5,147.576,101.742,205.957,202.528,381.538c170.59,297.131,373.26,561.851,634.06,567.671
	c185.44,4.15,292.15-70.89,531.28-226.67c180.689-117.732,456.18-283.672,898.229-404.013 M357.642-119.888
	C661.168,30.271,792.62,246.166,856.721,388.862C920.58,530.96,974.285,589.129,1084,766.679
	c179.22,290.142,364.9,537.911,616.86,551.751c190.279,10.471,306.38-56.659,555.12-206.31
	C2438.84,1002.1,2715.43,843.113,3150.47,722.343 M330.258-70.727c305.547,123.01,444.178,326.784,511.894,458.148
	c70.491,136.741,133.25,194.625,252.019,374.106c187.48,283.303,356.57,514.522,599.66,535.813
	c195.16,17.09,320.45-42.62,578.96-185.939c184.89-102.5,462.7-254.322,890.66-375.594 M302.85-21.518
	c307.599,95.87,453.894,287.461,524.719,407.544c77.538,131.478,148.727,189.141,276.762,370.387
	c195.439,276.676,348.24,491.706,582.45,519.886c200.06,24.07,334.359-28.83,602.81-165.58
	c186.771-95.149,465.92-239.639,886.84-361.371 M275.454,27.663c309.583,68.691,464.137,248.021,537.533,356.943
	C898.019,510.81,977.042,568.43,1114.49,751.283c203.16,270.257,339.899,469.387,565.25,503.946
	c204.939,31.44,348.149-15.279,626.649-145.199c188.591-87.99,469.16-224.976,883.05-347.186 M248.055,76.851
	c311.601,41.532,474.9,208.367,550.347,306.341c93.02,120.793,179.166,178.616,326.248,362.963
	c210.67,264.045,331.479,447.515,548.06,488.015c209.72,39.22,361.82-2.02,650.479-124.84c190.341-81,472.4-210.293,879.25-332.979
	 M220.659,126.032c313.622,14.383,486.151,168.444,563.162,255.74C885.36,496.873,977.968,555.375,1134.8,741.009
	c218,258.039,322.96,426.031,530.851,472.091c214.43,47.48,375.43,10.96,674.33-104.479
	c192.06-74.17,475.659-195.622,875.449-318.745 M193.264,175.213c315.64-12.776,497.825,128.163,575.949,205.122
	c110.6,108.94,208.991,168.764,375.737,355.538c225.2,252.241,314.26,404.947,513.649,456.157
	c218.95,56.22,388.98,23.64,698.181-84.141c193.729-67.52,478.88-180.93,871.649-304.563 M165.865,224.4
	c317.691-39.916,509.836,87.455,588.794,154.531C874.845,481.03,978.361,543.038,1155.14,730.75
	c232.25,246.664,305.391,384.17,496.44,440.229c223.24,65.49,402.49,36.041,722.02-63.75
	c195.42-61.029,482.11-166.252,867.84-290.358 M138.504,273.601c319.672-67.088,508.877,71.24,601.605,103.936
	c151.674,53.472,238.303,159.641,425.23,348.104c239.25,241.242,296.271,363.629,479.21,424.269
	c227.21,75.35,416.011,48.1,745.851-43.38c197.109-54.67,485.34-151.571,864.029-276.124 M111.076,322.763
	c321.692-94.236,524.624,25.871,614.42,53.335c157.382,48.139,252.797,155.364,449.974,344.394
	c246.22,236.095,286.931,343.357,462.04,408.357c230.851,85.75,429.54,59.88,769.71-23.029
	c198.841-48.46,488.57-136.899,860.24-261.951 M83.677,371.951c323.715-121.403,539.857-20.84,627.238,2.726
	c163.106,43.997,267.194,151.284,474.695,340.714c253.159,231.053,277.329,323.18,444.84,392.43
	c234.069,96.77,443.12,71.359,793.54-2.65c200.62-42.37,491.83-122.229,856.439-247.747 M56.281,421.132
	c325.729-148.555,558.018-80.405,640.06-47.871c161.57,64.129,281.527,147.392,499.449,336.989
	c260.07,226.229,267.39,303.13,427.63,376.49c236.78,108.38,456.78,82.52,817.41,17.7c202.45-36.4,495.05-107.531,852.63-233.545
	 M28.886,470.313C356.63,294.605,598.261,346.76,681.749,371.843c171.647,51.575,295.79,143.685,524.19,333.265
	c266.99,221.574,257.11,283.156,410.44,360.563c238.91,120.63,470.48,93.49,841.23,38.08c204.37-30.54,498.279-92.85,848.84-219.33
	 M1.487,519.5c329.768-202.863,580.087-167.064,665.681-149.078c181.129,38.037,309.996,140.169,548.952,329.544
	c273.92,217.084,246.46,263.18,393.229,344.634c240.44,133.421,484.28,104.15,865.07,58.45
	c206.34-24.76,501.52-78.189,845.04-205.137"/>
</svg>
