<svg width="1360" height="864" viewBox="0 0 1360 864" fill="none" xmlns="http://www.w3.org/2000/svg">
<path d="M-2322.93 -129.27C-1579.17 -6.51261 -1130.29 274.281 -851.833 523.822C-619.705 731.872 -600.214 833.84 -371.195 976.584C125.791 1286.33 968.026 1388.31 1269.33 959.368C1417.75 748.067 1300.78 548.461 1298.95 121.522C1297.32 -262.541 1392.1 -812.444 1848.59 -1489.06M-2301.73 -40.7815C-1585.25 47.4542 -1144.86 307.566 -870.771 538.09C-640.134 732.123 -604.731 822.411 -364.748 959.373C138.683 1246.69 930.891 1348.02 1237.87 942.011C1396 732.893 1304.4 531.481 1318.14 102.316C1330.25 -275.517 1431.19 -817.754 1878.79 -1487.23M-2280.53 47.6942C-1591.35 101.424 -1159.14 340.877 -889.672 552.349C-660.108 732.504 -609.566 811.066 -358.264 942.154C150.789 1207.69 895.063 1308.08 1206.48 924.653C1374.71 717.502 1307.78 514.775 1337.38 83.1118C1362.88 -288.324 1470.33 -823.039 1909.1 -1485.36M-2259.32 136.182C-1597.45 155.405 -1173.05 374.195 -908.556 566.681C-679.796 733.068 -614.738 799.887 -351.733 924.911C162.204 1169.36 860.495 1268.59 1175.11 907.277C1353.88 702.009 1310.89 498.309 1356.66 63.8869C1395.08 -300.957 1509.51 -828.332 1939.34 -1483.52M-2238.11 224.657C-1603.49 209.336 -1186.53 407.417 -927.466 580.878C-699.115 733.755 -620.09 788.865 -345.318 907.707C172.851 1131.74 826.983 1229.63 1143.64 889.925C1333.36 686.406 1313.57 482.044 1375.83 44.6858C1426.82 -313.46 1548.59 -833.617 1969.54 -1481.6M-2216.91 313.133C-1609.64 263.316 -1199.56 440.552 -946.366 595.137C-717.999 734.565 -625.852 778.115 -338.837 890.476C183.015 1094.8 794.605 1191.21 1112.22 872.572C1313.33 670.811 1315.85 465.946 1395.05 25.4718C1458.19 -325.895 1587.72 -838.899 1999.77 -1479.82M-2195.71 401.609C-1615.76 317.224 -1212.08 473.443 -965.267 609.396C-736.425 735.453 -631.778 767.608 -332.364 873.26C192.734 1058.53 763.216 1153.39 1080.81 855.208C1293.72 655.303 1317.87 449.905 1414.28 6.27041C1489.17 -338.293 1626.9 -844.192 2030.01 -1477.96M-2174.45 490.087C-1621.8 371.232 -1223.98 506.056 -984.12 623.644C-754.291 736.32 -637.798 757.381 -325.844 856.032C202.12 1022.92 732.785 1116.17 1049.44 837.832C1274.59 639.932 1319.45 433.936 1433.55 -12.9539C1519.73 -350.664 1665.98 -849.426 2060.25 -1476.12M-2153.3 578.573C-1627.95 425.213 -1235.41 538.276 -1003.07 637.926C-771.662 737.128 -644.144 747.588 -319.411 838.812C211.174 987.946 703.087 1079.62 1017.98 820.49C1255.81 624.805 1320.5 417.956 1452.73 -32.1572C1549.95 -363.073 1705.1 -854.757 2090.56 -1474.29M-2132.1 667.013C-1634.05 479.143 -1246.22 569.934 -1021.97 652.148C-788.54 737.722 -650.563 737.94 -312.947 821.558C219.977 953.534 674.063 1043.66 986.549 803.089C1237.42 609.955 1321.17 401.869 1471.95 -51.4077C1579.79 -375.579 1744.24 -860.079 2120.73 -1472.46M-2110.88 755.536C-1640.07 533.134 -1256.46 601.049 -1040.85 666.44C-804.789 738.046 -657.023 728.78 -306.453 804.363C228.706 919.746 645.696 1008.42 955.147 785.772C1219.49 595.57 1321.4 385.736 1491.19 -70.5858C1609.32 -388.092 1783.38 -865.325 2150.99 -1470.56M-2089.68 844.012C-1646.24 587.105 -1266.21 631.398 -1059.75 680.699C-820.543 737.834 -663.505 719.947 -299.981 787.146C237.343 886.443 617.83 973.772 923.73 768.407C1201.94 581.642 1321.2 369.404 1510.42 -89.7875C1638.54 -400.758 1822.5 -870.619 2181.22 -1468.73M-2068.48 932.501C-1652.34 641.075 -1275.57 660.937 -1078.65 694.971C-835.858 736.929 -670.122 711.493 -293.496 769.927C245.96 853.623 590.363 939.754 892.325 751.039C1184.72 568.298 1320.58 352.868 1529.64 -109.001C1667.49 -413.556 1861.63 -875.902 2211.47 -1466.88M-2047.27 1020.98C-1658.43 695.041 -1284.65 689.611 -1097.55 709.23C-850.849 735.1 -676.684 703.402 -287.052 752.704C254.557 821.234 563.173 906.282 860.885 733.693C1167.92 555.622 1319.51 336.071 1548.84 -128.209C1696.21 -426.522 1900.76 -881.22 2241.71 -1465M-2026.07 1109.45C-1664.53 748.999 -1293.62 717.395 -1116.5 723.5C-865.76 732.128 -683.267 695.677 -280.592 735.49C263.232 789.253 536.219 873.518 829.443 716.333C1151.42 543.733 1318.07 318.983 1568.04 -147.455C1724.66 -439.684 1939.84 -886.507 2271.89 -1463.22M-2004.86 1197.94C-1670.57 802.954 -1302.66 744.315 -1135.35 737.748C-880.688 727.753 -689.709 688.295 -274.074 718.25C272.034 757.67 509.454 841.255 798.077 698.97C1135.29 532.704 1316.33 301.6 1587.32 -166.63C1753.06 -452.991 1979.03 -891.763 2302.19 -1461.34M-1983.6 1286.4C-1676.67 856.924 -1300.27 814.534 -1154.19 752.005C-915.252 649.715 -696.059 681.267 -267.527 701.017C280.982 726.326 482.689 809.56 766.661 681.605C1119.39 522.708 1314.19 283.775 1606.55 -185.844C1781.25 -466.485 2018.16 -897.045 2332.45 -1459.44M-1962.45 1374.89C-1682.82 910.904 -1310.01 831.824 -1173.14 766.277C-933.252 651.4 -702.454 674.597 -261.113 683.814C290.069 695.364 455.822 778.443 735.247 664.239C1103.69 513.74 1311.77 265.628 1625.77 -205.084C1809.33 -480.226 2057.29 -902.365 2362.67 -1457.67M-1941.25 1463.38C-1688.92 964.861 -1321.78 848.079 -1192.05 780.536C-949.874 654.468 -708.69 668.254 -254.618 666.644C299.291 664.617 428.81 747.785 703.846 646.948C1088.16 506.038 1309.08 247.138 1645.02 -224.211C1837.34 -494.054 2096.44 -907.588 2392.93 -1455.74M-1920.05 1551.86C-1695.02 1018.83 -1344.12 845.826 -1210.93 794.793C-948.569 694.358 -714.783 662.202 -248.139 649.4C308.725 634.068 401.544 717.559 672.435 629.556C1072.67 499.49 1306.12 228.091 1664.25 -243.492C1865.3 -508.243 2135.59 -912.913 2423.17 -1453.96M-1898.84 1640.33C-1701.12 1072.8 -1356.61 870.546 -1229.84 809.066C-969.224 682.673 -720.78 656.464 -241.682 632.174C318.312 603.744 373.921 687.812 641.005 612.194C1057.19 494.373 1302.99 208.795 1683.46 -262.663C1893.19 -522.548 2174.7 -918.164 2453.41 -1452.08M-1877.64 1728.82C-1707.21 1126.77 -1370.25 895.552 -1248.75 823.325C-991.652 670.455 -726.625 651.002 -235.204 614.93C328.128 573.574 345.891 658.441 609.596 594.814C1041.58 490.537 1299.67 189.002 1702.7 -281.892C1921.09 -537.036 2213.82 -923.483 2483.65 -1450.26" stroke="url(#paint0_linear_607_1386)" stroke-width="2" stroke-miterlimit="10"/>
<defs>
<linearGradient id="paint0_linear_607_1386" x1="-684.674" y1="994.934" x2="1765.57" y2="152.088" gradientUnits="userSpaceOnUse">
<stop stop-color="#262626" stop-opacity="0"/>
<stop offset="0.461606" stop-color="#313131" stop-opacity="0.7"/>
<stop offset="0.959566" stop-color="#262626" stop-opacity="0"/>
</linearGradient>
</defs>
</svg>
