<?xml version="1.0" encoding="utf-8"?>
<!-- Generator: Adobe Illustrator 16.0.0, SVG Export Plug-In . SVG Version: 6.00 Build 0)  -->
<!DOCTYPE svg PUBLIC "-//W3C//DTD SVG 1.1//EN" "http://www.w3.org/Graphics/SVG/1.1/DTD/svg11.dtd">
<svg version="1.1" id="Layer_1" xmlns="http://www.w3.org/2000/svg" xmlns:xlink="http://www.w3.org/1999/xlink" x="0px" y="0px"
	 width="1131.698px" height="493.087px" viewBox="782.302 0 1131.698 493.087" enable-background="new 782.302 0 1131.698 493.087"
	 xml:space="preserve">
<defs>
	
		<filter id="Adobe_OpacityMaskFilter" filterUnits="userSpaceOnUse" x="-167.976" y="-1219.717" width="3346.348" height="1732.381">
		<feColorMatrix  type="matrix" values="1 0 0 0 0  0 1 0 0 0  0 0 1 0 0  0 0 0 1 0"/>
	</filter>
</defs>
<mask maskUnits="userSpaceOnUse" x="-167.976" y="-1219.717" width="3346.348" height="1732.381" id="mask0_607_1504">
	<path fill="#EFF3F4" filter="url(#Adobe_OpacityMaskFilter)" d="M0,0h1914v846H0V0z"/>
	
		<linearGradient id="SVGID_1_" gradientUnits="userSpaceOnUse" x1="948.6602" y1="1639.8018" x2="948.6601" y2="-226.2104" gradientTransform="matrix(1 0 0 -1 8.3398 822.04)">
		<stop  offset="0" style="stop-color:#097D96"/>
		<stop  offset="1" style="stop-color:#480866"/>
	</linearGradient>
	<path fill="url(#SVGID_1_)" d="M0,0h1914v846H0V0z"/>
	
		<linearGradient id="SVGID_2_" gradientUnits="userSpaceOnUse" x1="2994.25" y1="399.041" x2="-436.9961" y2="399.0407" gradientTransform="matrix(1 0 0 -1 8.3398 822.04)">
		<stop  offset="0" style="stop-color:#2CD9FF"/>
		<stop  offset="1" style="stop-color:#AD00FF"/>
	</linearGradient>
	<path fill="url(#SVGID_2_)" d="M0,0h1914v846H0V0z"/>
</mask>
<g mask="url(#mask0_607_1504)">
	
		<linearGradient id="SVGID_3_" gradientUnits="userSpaceOnUse" x1="2131.8711" y1="1010.5254" x2="734.278" y2="1193.1851" gradientTransform="matrix(1 0 0 -1 8.3398 822.04)">
		<stop  offset="0" style="stop-color:#DFDFDF;stop-opacity:0"/>
		<stop  offset="0.4201" style="stop-color:#E9E9E9"/>
		<stop  offset="0.9596" style="stop-color:#CECECE;stop-opacity:0"/>
	</linearGradient>
	<path fill="none" stroke="url(#SVGID_3_)" stroke-width="2" stroke-miterlimit="10" stroke-opacity="0.2" d="M3178.05-773.724
		c-481.58,163.709-749.42,400.108-907.27,596.917c-131.591,164.082-133.32,234.108-270.04,354.375
		c-296.68,260.976-846.09,421.71-1093.939,169.391C784.708,222.665,840.567,76.898,794.716-207.503
		C753.464-463.342,629.75-818.946,251.29-1219.03 M3173.689-712.482C2706.48-574.762,2442-353.065,2284.96-169.397
		C2152.82-14.81,2139.21,49.195,1994.55,166.822C1691.11,413.579,1174.93,568.364,925.826,331.937
		c-128.316-121.77-89.54-265.942-146.001-550.109c-49.711-250.178-176.679-600-548.439-996.308 M3169.32-651.249
		c-452.83,111.74-714.141,318.784-870.21,489.26c-132.95,145.231-157.94,203.1-310.771,318.063
		c-309.59,232.879-793.96,381.754-1043.532,160.848C809.985,197.574,832.192,55.246,764.9-228.835
		c-57.918-244.442-188.392-588.54-553.481-981.055 M3164.96-590.008c-438.46,85.761-696.86,278.188-851.7,435.478
		C2179.32-18.553,2143.38,33.099,1982.09,145.316c-315.16,219.382-769.05,362.41-1018.316,156.582
		C822.146,184.964,828.305,44.628,749.95-239.507c-65.798-238.63-200.104-577.073-558.462-965.823 M3160.6-528.775
		c-424.14,59.761-679.859,237.584-833.189,381.611c-135.15,126.938-181.68,172.335-351.49,281.736
		c-320.23,206.253-744.87,343.526-993.107,152.305c-148.728-114.561-158.08-252.78-247.739-537.053
		c-73.424-232.785-211.825-565.613-563.471-950.554 M3156.24-467.542c-409.73,33.784-663.17,196.971-814.67,327.786
		C2204.92-21.768,2148.38,17.38,1969.71,123.816c-324.85,193.541-721.34,325.137-967.9,148.047
		C845.699,159.726,821.441,23.631,720.157-260.846C639.396-487.78,496.618-814.991,151.674-1196.21 M3151.88-406.309
		c-395.36,7.761-646.85,156.253-796.16,273.961C2217.28-23.208,2151.17,9.733,1963.5,113.069
		c-329.11,181.216-698.41,307.251-942.689,143.771C857.044,147.241,818.328,13.176,705.241-271.508
		c-87.833-221.11-235.286-542.688-573.49-920.132 M3147.48-345.069c-380.98-18.193-630.931,115.41-777.641,220.127
		C2229.27-24.601,2154.05,2.261,1957.27,102.32c-333.06,169.293-676.02,289.87-917.489,139.496
		C868.083,134.901,815.513,2.721,690.291-282.181c-94.596-215.303-246.932-531.19-578.471-904.899 M3143.16-283.834
		c-366.62-44.173-615.46,74.363-759.13,166.311C2240.92-25.978,2157.189-4.958,1951.08,91.566
		c-336.75,157.766-654.09,273.017-892.27,135.237C878.914,122.761,813.05-7.8,675.409-292.85
		C574.214-502.413,416.73-812.607,91.846-1182.52 M3138.8-222.626c-352.25-70.154-600.41,33.037-740.62,112.485
		c-145.96,82.698-237.779,98.054-453.3,190.935c-340.2,146.602-632.54,256.656-867.069,130.961
		C889.52,110.848,810.833-18.436,660.494-303.546c-107.524-203.902-270.4-508.29-588.527-874.434 M3134.43-161.36
		c-337.92-96.144-585.79-8.645-722.109,58.653c-149.24,73.688-248.631,83.81-473.66,172.77
		c-343.521,135.803-611.32,240.802-841.86,126.703C899.872,99.296,808.898-29.149,645.573-314.191
		C531.938-512.523,363.46-811.013,52.031-1173.37 M3130.07-100.127c-323.51-122.129-571.601-50.751-703.59,4.828
		c-152.94,64.403-259.45,69.808-494.03,154.615c-346.73,125.333-590.38,225.41-816.65,122.428
		C910.021,88.089,807.232-40.043,630.657-324.853C511.086-517.732,336.831-810.224,32.108-1168.82 M3125.71-38.885
		c-309.14-148.118-557.75-93.362-685.08-48.998c-156.99,54.696-270.12,56.035-514.39,136.451
		C1576.37,163.752,1356.6,259.054,1134.79,166.72C920.01,77.309,805.823-51.119,615.741-335.524
		C490.403-523.06,310.201-809.426,12.177-1164.26 M3121.35,22.348C2826.58-151.75,2577.17-114.161,2454.78-80.475
		c-161.37,44.417-280.8,42.517-534.73,118.289c-352.979,105.325-549.04,195.961-766.239,113.893
		C929.793,67.02,804.682-62.418,600.842-346.193C469.856-528.524,283.573-808.654-7.747-1159.67 M3116.99,83.581
		C2836.59-116.505,2586.2-96.654,2468.97-73.064c-165.96,33.385-291.46,29.238-555.12,100.132
		c-356.08,95.74-528.51,181.927-741.02,109.618C939.468,57.286,803.758-73.952,585.944-356.889
		C449.471-534.151,256.97-807.864-27.641-1155.16 M3112.63,144.823C2846.561-81.255,2595.18-79.73,2483.09-65.658
		c-170.62,21.421-302.1,16.208-575.479,81.968c-359.181,86.443-508.011,168.257-715.82,105.359
		C948.99,48.166,803.001-85.715,570.992-367.527C429.1-539.878,230.305-807.043-47.6-1150.57 M3108.22,206.053
		C2856.57-46.001,2601.33-32.724,2497.2-58.244c-170.33-41.751-312.761,3.416-595.84,63.805
		c-362.341,77.314-487.431,154.958-690.57,101.086C958.471,39.759,802.458-97.816,556.076-378.198
		C408.848-545.753,203.675-806.245-67.533-1145.97 M3103.9,267.289C2866.61-10.746,2609.73-22.29,2511.39-50.833
		c-172.35-50.024-323.43-9.139-616.2,45.649c-365.629,68.451-466.81,142.026-665.399,96.809
		C967.936,32.059,802.071-110.163,541.158-388.885C388.637-551.803,177.044-805.474-87.456-1141.46 M3099.54,328.53
		C2876.62,24.499,2619.35-12.766,2525.55-43.425c-175.11-57.223-334.14-21.458-636.58,27.527
		c-368.939,59.713-445.989,129.354-640.189,92.55C977.424,25.219,801.821-122.767,526.239-399.497
		C368.467-557.92,150.404-804.634-107.39-1136.84 M3095.18,389.763C2886.63,59.752,2633.98-16.729,2539.689-36.018
		c-185.72-37.933-344.89-33.565-656.93,9.355C1510.38,24.521,1457.8,90.33,1267.78,61.612
		C987.014,19.153,801.695-135.773,511.308-410.21c-163.015-154.074-387.549-393.653-638.626-722.11 M3090.82,450.996
		C2896.64,95.005,2645.01-1.649,2553.85-28.601c-187.42-55.405-355.689-45.463-677.289-8.817
		c-375.9,42.809-403.65,104.901-589.78,84.007C996.755,14.04,801.646-148.962,496.408-420.855
		C328.15-570.732,97.146-803.047-147.243-1127.73 M3086.46,512.238c-179.82-381.98-429.61-498.747-518.45-533.431
		c-188-73.419-366.56-57.151-697.66-26.989c-379.55,34.572-382.02,93.023-564.58,79.74
		C1006.72,9.766,801.679-162.505,481.484-431.534C307.98-577.3,70.518-802.275-167.172-1123.19"/>
</g>
</svg>
