<svg width="1360" height="701" viewBox="0 0 1360 701" fill="none" xmlns="http://www.w3.org/2000/svg">
<mask id="mask0_607_623" style="mask-type:alpha" maskUnits="userSpaceOnUse" x="0" y="0" width="1360" height="701">
<rect width="1360" height="701" rx="80" fill="#111111"/>
</mask>
<g mask="url(#mask0_607_623)">
<path d="M-2565.06 -88.1521C-1814.68 -160.112 -1308.83 -3.73738 -975.718 166.106C-698.023 307.715 -653.05 401.282 -395.097 480.565C164.674 652.596 1004.92 535.319 1186.22 43.4821C1275.53 -198.799 1111.31 -361.761 1000.13 -773.974C900.123 -1144.79 850.807 -1700.62 1118.64 -2471.63M-2521.89 -8.05394C-1806.73 -106.387 -1314.38 32.1709 -990.367 184.75C-717.705 313.194 -660.345 391.393 -393.276 462.277C166.977 610.976 958.695 505.891 1151.37 34.7665C1250.63 -207.893 1110.46 -379.101 1013.76 -797.456C928.625 -1165.77 887.224 -1715.77 1148.3 -2477.6M-2478.72 72.0328C-1798.8 -52.6568 -1319.65 68.0298 -1004.98 203.377C-736.914 318.682 -667.926 381.667 -391.421 443.971C168.683 570.178 913.828 476.469 1116.58 26.033C1226.1 -217.315 1109.45 -396.117 1027.43 -820.949C956.884 -1186.51 923.704 -1730.91 1178.08 -2483.56M-2435.54 152.131C-1790.85 1.08499 -1324.55 103.798 -1019.56 222.071C-755.8 324.272 -675.791 372.187 -389.528 425.63C169.894 530.205 870.292 447.151 1081.81 17.2768C1201.99 -226.951 1108.24 -412.831 1041.14 -844.472C984.774 -1206.98 960.218 -1746.06 1207.78 -2489.53M-2392.37 232.216C-1782.87 54.762 -1329.07 139.367 -1034.2 240.639C-774.298 329.888 -683.789 362.904 -387.736 407.357C170.543 491.106 827.915 418.084 1046.94 8.57058C1178.16 -236.774 1106.65 -429.237 1054.75 -867.945C1012.24 -1227.2 996.64 -1761.19 1237.46 -2495.41M-2349.2 312.303C-1774.98 108.516 -1333.17 174.734 -1048.82 259.266C-792.344 335.51 -692.113 353.989 -385.887 389.04C170.9 452.798 786.772 389.242 1012.12 -0.15127C1154.8 -246.715 1104.73 -445.382 1068.4 -891.444C1039.38 -1247.26 1033.11 -1776.32 1267.14 -2501.44M-2306.03 392.389C-1767.08 162.19 -1336.84 209.734 -1063.43 277.893C-809.927 341.091 -700.533 345.352 -384.043 370.74C171 415.249 746.739 360.733 977.304 -8.88404C1131.87 -256.679 1102.57 -461.405 1082.07 -914.932C1066.15 -1267.18 1069.62 -1791.48 1296.84 -2507.39M-2262.81 472.465C-1759.08 215.943 -1339.99 244.309 -1078 296.497C-826.973 346.508 -708.974 337.009 -382.156 352.417C170.945 378.419 707.787 332.558 942.529 -17.6396C1109.44 -266.633 1100.01 -477.246 1095.77 -938.454C1092.52 -1286.97 1106.06 -1806.56 1326.55 -2513.36M-2219.68 552.575C-1751.18 269.696 -1342.78 278.382 -1092.66 315.158C-843.558 351.74 -717.618 329.17 -380.351 334.123C170.734 342.295 669.712 304.835 907.672 -26.3389C1087.42 -276.443 1096.93 -492.962 1109.39 -961.931C1118.55 -1306.71 1142.51 -1821.74 1356.32 -2519.36M-2176.53 632.628C-1743.26 323.388 -1345.12 311.754 -1107.29 333.751C-859.72 356.64 -726.295 321.49 -378.525 315.789C170.424 306.776 632.442 277.518 872.836 -35.1054C1065.83 -286.084 1093.45 -508.683 1123.03 -985.463C1144.19 -1326.45 1178.97 -1836.91 1385.94 -2525.33M-2133.33 712.757C-1735.24 377.12 -1347.04 344.453 -1121.87 352.403C-875.343 361.118 -734.887 314.291 -376.654 297.503C170.201 271.88 595.992 250.728 838.045 -43.7957C1044.81 -295.392 1089.55 -524.337 1136.71 -1008.93C1169.52 -1346.11 1215.46 -1852.01 1415.68 -2531.25M-2090.16 792.844C-1727.37 430.869 -1348.69 376.287 -1136.49 371.03C-890.625 364.95 -743.416 307.415 -374.811 279.203C170.015 237.476 560.175 224.375 803.227 -52.529C1024.28 -304.356 1085.17 -540.072 1150.38 -1032.42C1194.53 -1365.84 1251.93 -1867.16 1445.38 -2537.22M-2046.99 872.943C-1719.44 484.6 -1350.17 407.239 -1151.1 389.668C-905.66 368.001 -751.979 300.939 -372.956 260.897C169.933 203.543 524.908 198.533 768.419 -61.2678C1004.21 -312.842 1080.33 -555.896 1164.04 -1055.92C1219.23 -1385.63 1288.39 -1882.29 1475.08 -2543.19M-2003.82 953.029C-1711.49 538.325 -1351.59 437.283 -1165.71 408.294C-920.62 370.075 -760.395 294.8 -371.141 242.598C169.942 170.033 490.047 173.146 733.584 -69.9778C984.732 -320.79 1074.99 -571.859 1177.67 -1079.41C1243.67 -1405.52 1324.85 -1897.46 1504.8 -2549.12M-1960.65 1033.12C-1703.56 592.044 -1353.14 466.437 -1180.37 426.944C-935.795 371.024 -768.739 289.02 -369.309 224.303C170.131 136.897 455.597 148.385 698.743 -78.6994C965.733 -328.053 1069.22 -588.007 1191.29 -1102.93C1267.79 -1425.54 1361.27 -1912.59 1534.43 -2555.14M-1917.47 1113.21C-1695.57 645.745 -1354.97 494.773 -1194.94 445.548C-951.345 370.621 -776.857 283.535 -367.426 205.969C170.545 104.113 421.457 124.059 663.975 -87.4443C947.315 -334.58 1063.08 -604.363 1205.02 -1126.41C1291.83 -1445.68 1397.81 -1927.71 1564.19 -2561.08M-1874.25 1193.27C-1687.64 699.476 -1334.67 562.036 -1209.49 464.156C-1004.75 304.047 -784.796 278.369 -365.515 187.634C171.161 71.5224 387.463 100.282 629.157 -96.1778C929.385 -340.168 1056.45 -621.045 1218.68 -1149.91C1315.62 -1465.95 1434.28 -1942.84 1593.93 -2567.01M-1831.13 1273.39C-1679.74 753.228 -1339.66 581.246 -1224.16 482.81C-1021.72 310.289 -792.686 273.561 -363.724 169.361C172.009 39.2651 353.519 77.0901 594.342 -104.912C911.907 -344.811 1049.45 -637.965 1232.33 -1173.43C1339.24 -1486.43 1470.73 -1958.01 1623.59 -2573.04M-1787.95 1353.48C-1671.82 806.947 -1346.87 599.973 -1238.78 501.437C-1037 317.515 -800.34 269.028 -361.846 151.1C173.043 7.18199 319.551 54.3789 559.558 -113.579C894.923 -348.276 1042.12 -655.149 1246.03 -1196.85C1362.77 -1506.97 1507.24 -1973.1 1653.34 -2578.93M-1744.78 1433.57C-1663.88 860.678 -1369.04 603.522 -1253.38 520.058C-1025.52 355.738 -807.78 264.74 -360.003 132.772C174.333 -24.7642 285.449 32.1495 524.739 -122.34C878.271 -350.636 1034.37 -672.799 1259.68 -1220.42C1386.16 -1527.85 1543.71 -1988.28 1683.02 -2584.96M-1701.61 1513.66C-1655.95 914.408 -1374.77 630.615 -1268 538.702C-1048.48 349.737 -815.048 260.731 -358.177 114.466C175.828 -56.5333 251.125 10.4758 489.909 -131.067C861.996 -351.614 1026.4 -690.65 1273.34 -1243.87C1409.45 -1548.83 1580.17 -2003.38 1712.74 -2590.89M-1658.44 1593.76C-1648 968.133 -1381.55 658.283 -1282.62 557.328C-1073.29 343.675 -822.098 256.949 -356.334 96.1376C177.585 -88.2108 216.504 -10.731 455.095 -139.817C845.926 -351.322 1018.12 -708.93 1287 -1267.39C1432.71 -1569.98 1616.62 -2018.54 1742.44 -2596.88" stroke="url(#paint0_linear_607_623)" stroke-width="2" stroke-miterlimit="10"/>
</g>
<defs>
<linearGradient id="paint0_linear_607_623" x1="-693.403" y1="578.643" x2="1313.46" y2="-704.298" gradientUnits="userSpaceOnUse">
<stop stop-color="#262626" stop-opacity="0"/>
<stop offset="0.143409" stop-color="#3A3A3A" stop-opacity="0.341581"/>
<stop offset="0.461606" stop-color="#3F3F3F"/>
<stop offset="0.804777" stop-color="#2D2D2D" stop-opacity="0.111192"/>
<stop offset="0.959566" stop-color="#262626" stop-opacity="0"/>
</linearGradient>
</defs>
</svg>
