<?xml version="1.0" encoding="utf-8"?>
<!-- Generator: Adobe Illustrator 16.0.0, SVG Export Plug-In . SVG Version: 6.00 Build 0)  -->
<!DOCTYPE svg PUBLIC "-//W3C//DTD SVG 1.1//EN" "http://www.w3.org/Graphics/SVG/1.1/DTD/svg11.dtd">
<svg version="1.1" id="Layer_1" xmlns="http://www.w3.org/2000/svg" xmlns:xlink="http://www.w3.org/1999/xlink" x="0px" y="0px"
	 width="1363.432px" height="758.913px" viewBox="208.128 962.087 1363.432 758.913"
	 enable-background="new 208.128 962.087 1363.432 758.913" xml:space="preserve">
<linearGradient id="SVGID_1_" gradientUnits="userSpaceOnUse" x1="240.0332" y1="865.002" x2="1638.0333" y2="685.5019" gradientTransform="matrix(1 0 0 -1 8.3398 1697.04)">
	<stop  offset="0" style="stop-color:#DFDFDF;stop-opacity:0"/>
	<stop  offset="0.4201" style="stop-color:#E9E9E9"/>
	<stop  offset="0.9596" style="stop-color:#CECECE;stop-opacity:0"/>
</linearGradient>
<path fill="none" stroke="url(#SVGID_1_)" stroke-width="2" stroke-miterlimit="10" d="M-606.077,1.658
	c423.958,281.017,622.727,577.866,725.215,808.4c85.431,192.192,69.264,260.353,170.819,411.482
	c220.387,327.96,710.703,623.39,1014.663,442.56c149.74-89.079,132.87-244.27,249.68-507.6
	c105.08-236.881,315.32-549.222,783.23-839.656 M-617.466,61.989c416.692,252.226,615.951,534,721.005,751.621
	c88.384,183.154,85.238,248.52,195.141,399.119c230.551,315.931,690.246,597.141,991.37,431.99
	c155.11-85.05,154.36-234.34,281.36-494.74c111.82-229.254,323.74-535.175,784.21-823.668 M-628.852,122.312
	C-219.437,345.754-19.509,612.55,87.965,817.167c91.557,174.316,100.97,236.643,219.463,386.753
	c240.026,304.08,670.474,571.47,968.103,421.45c160.78-81.061,175.569-224.34,313.03-481.9
	c118.3-221.613,332.14-521.106,785.199-807.637 M-640.24,182.643C-238.102,377.301-37.272,629.219,72.381,820.774
	c94.865,165.616,116.457,224.726,243.83,374.336c248.857,292.449,651.32,546.41,944.799,410.899
	c166.75-76.989,196.561-214.26,344.73-469.05c124.43-213.986,340.54-507.033,786.13-791.638 M-651.624,242.967
	C-256.717,408.832-54.75,645.947,56.818,824.29c98.345,157.188,131.771,212.939,268.094,362
	c257.104,281.05,632.75,522,921.518,400.34c173.01-72.88,217.28-204.15,376.41-456.2c130.32-206.387,348.96-492.961,787.09-775.586
	 M-663.01,303.289C-275.414,440.364-71.923,662.746,41.244,827.847c102.071,148.913,146.767,201.174,292.418,349.623
	c264.813,269.931,614.681,498.221,898.228,389.801c179.53-68.65,237.671-194.08,408.101-443.351
	c135.92-198.866,357.359-478.894,788.06-759.628 M-674.397,363.612C-294.069,471.861-88.713,679.536,25.67,831.404
	c106.056,140.813,161.595,189.516,316.732,337.256c272.074,259.1,597.063,475.08,874.938,379.24
	c186.29-64.25,257.891-184.021,439.79-430.49c141.271-191.433,365.8-464.82,789.021-743.622 M-685.753,423.95
	c373.046,79.489,580.701,272.373,695.882,411.018c110.36,132.849,176.256,177.992,341.045,324.893
	c278.919,248.569,579.839,452.56,851.656,368.68c193.27-59.63,277.79-174.05,471.47-417.64
	c146.34-184.095,374.14-450.735,789.96-727.623 M-697.172,484.266c365.769,50.705,576.187,228.737,691.692,354.262
	c115.05,124.987,190.663,166.652,365.37,312.503c285.437,238.37,562.938,430.68,828.359,358.14
	c200.47-54.76,297.43-164.229,503.16-404.8c151.26-176.857,382.58-436.682,791-711.594 M-708.554,544.564
	c358.501,21.923,572.166,184.939,687.506,297.494C99.017,959.218,183.896,997.465,368.636,1142.2
	c291.615,228.45,546.257,409.359,805.074,347.58c207.79-49.59,316.82-154.561,534.851-391.95
	c155.93-169.772,390.989-422.608,791.92-695.6 M-719.944,604.921c351.268-6.862,568.661,140.911,683.328,240.722
	c125.541,109.287,219.066,144.399,414,287.768c297.574,218.85,529.779,388.63,781.776,337.04
	c215.27-44.07,335.97-145.101,566.54-379.11c160.42-162.83,399.399-408.536,792.88-679.578 M-731.33,665.244
	c343.95-35.663,565.661,96.577,679.14,183.956C79.285,950.447,180.899,982.814,386.124,1124.6
	c303.35,209.551,513.456,368.41,758.496,326.48c222.85-38.13,354.899-135.84,598.22-366.25
	c164.771-156.044,407.811-394.478,793.85-663.588 M-742.719,725.575c336.676-64.455,563.126,51.843,674.953,127.19
	C70.107,945.66,179.161,975.782,394.872,1115.79c308.972,200.53,497.196,348.689,735.208,315.92
	c230.48-31.73,373.63-126.82,629.9-353.4C1928.97,928.905,2176.2,697.91,2554.8,430.732 M-754.105,785.898
	c329.406-93.238,561.002,6.663,670.765,70.425c144.724,84.069,260.696,112.665,486.937,250.637
	c314.486,191.8,480.979,329.4,711.923,305.39c238.2-24.81,392.17-118.09,661.591-340.56
	c173.12-142.934,424.64-366.349,795.79-631.545 M-765.492,846.221c322.132-122.03,559.193-39.031,666.545,13.652
	c151.973,74.572,274.384,102.541,511.275,238.277c319.929,183.319,464.705,310.6,688.632,294.829
	c245.89-17.319,410.56-109.64,693.28-327.739c177.14-136.63,433.029-352.255,796.74-615.563 M-776.88,906.552
	c314.898-150.813,557.585-85.286,662.392-43.115c159.532,64.191,287.999,92.653,535.59,225.903
	c325.298,175.12,448.366,292.15,665.348,284.29c253.52-9.21,428.8-101.47,724.96-314.859
	c181.13-130.509,441.439-338.197,797.7-599.565 M-788.224,966.884c307.579-179.607,551.003-101.73,658.203-99.873
	c175.344,3.029,301.564,82.999,559.914,213.529c330.674,167.09,431.854,274.05,642.018,273.72
	c261.029-0.39,446.95-93.67,756.64-302.01c185.07-124.507,449.851-324.12,798.67-583.521 M-799.65,1027.2
	c300.311-208.392,551.653-154.096,654.015-156.641c179.411-4.455,315.084,73.578,584.229,201.16
	c336.119,159.36,415.209,256.29,618.767,263.17c268.39,9.12,465.02-86.14,788.34-289.17c189-118.679,458.25-310.057,799.63-567.553
	 M-811.039,1087.53c293.038-237.191,551.31-207.669,649.831-213.413c183.904-10.714,328.57,64.394,608.543,188.823
	c341.548,151.76,398.307,238.739,595.476,252.63c275.51,19.409,483.02-78.94,820.02-276.311
	c192.939-112.994,466.67-295.997,800.6-551.545 M-822.425,1147.85c285.76-265.972,549.562-275.548,645.651-270.174
	c189.255,10.645,342.057,55.426,632.861,176.444c347.042,144.38,381.12,221.42,572.193,242.07
	c282.31,30.479,500.989-72.11,851.72-263.49c196.89-107.447,475.07-281.902,801.55-535.537 M-833.812,1208.18
	c278.484-294.764,546.437-324.107,641.454-326.94C2.993,875.421,163.176,927.913,464.82,1045.3
	c352.587,137.18,363.598,204.29,548.899,231.521c288.75,42.43,518.96-65.48,883.4-250.61
	c200.899-102.059,483.47-267.842,802.53-519.534 M-845.2,1268.51c271.217-323.553,542.518-372.813,637.268-383.714
	c200.494-23.092,369.018,38.14,681.503,151.674c358.213,130.15,345.705,187.301,525.619,220.971
	c294.729,55.13,536.909-59.2,915.079-237.761c204.92-96.74,491.881-253.779,803.49-503.53"/>
</svg>
