<?xml version="1.0" encoding="utf-8"?>
<!-- Generator: Adobe Illustrator 16.0.0, SVG Export Plug-In . SVG Version: 6.00 Build 0)  -->
<!DOCTYPE svg PUBLIC "-//W3C//DTD SVG 1.1//EN" "http://www.w3.org/Graphics/SVG/1.1/DTD/svg11.dtd">
<svg version="1.1" id="Layer_1" xmlns="http://www.w3.org/2000/svg" xmlns:xlink="http://www.w3.org/1999/xlink" x="0px" y="0px"
	 width="650px" height="639.748px" viewBox="124.5 1447.252 650 639.748" enable-background="new 124.5 1447.252 650 639.748"
	 xml:space="preserve">
<linearGradient id="SVGID_1_" gradientUnits="userSpaceOnUse" x1="670.8008" y1="1367.2637" x2="-23.4055" y2="1207.7836" gradientTransform="matrix(1 0 0 -1 8.3398 2297.04)">
	<stop  offset="0" style="stop-color:#DFDFDF;stop-opacity:0"/>
	<stop  offset="0.5695" style="stop-color:#E9E9E9"/>
	<stop  offset="0.9596" style="stop-color:#CECECE;stop-opacity:0"/>
</linearGradient>
<path fill="none" stroke="url(#SVGID_1_)" stroke-width="2" stroke-miterlimit="10" d="M1884.28,1.262
	c-576.13,378.589-847.141,779.852-987.289,1091.759C780.164,1353.05,801.708,1445.51,663.248,1649.8
	c-300.474,443.32-966.619,841.08-1377.626,594.34c-202.464-121.539-178.759-331.779-335.652-689.319
	c-141.15-321.63-424.42-746.097-1057.04-1142.266 M1899.39,83.094C1333.26,422.7,1061.68,803.528,918.114,1097.92
	c-120.781,247.76-116.871,336.36-266.642,539.89c-314.184,426.961-938.755,805.61-1346,580.15
	c-209.769-116.109-207.935-318.45-378.673-672.07c-150.31-311.33-435.88-727.103-1058.43-1120.601 M1914.5,164.914
	c-556.11,300.633-828.53,661.157-975.297,937.906c-125.033,235.77-138.128,320.189-299.539,523
	C312.701,2036.66-272.154,2396.74-674.73,2191.81c-217.483-110.729-236.759-305.01-421.68-654.84
	c-159.13-301-447.35-708.076-1059.86-1098.874 M1929.61,246.746C1383.52,508.405,1109.96,848.76,960.306,1107.79
	c-129.471,223.96-159.056,303.95-332.499,506.04c-338.87,395.03-885.722,737.069-1282.765,551.81
	c-225.588-105.24-265.243-291.449-464.692-637.58c-167.5-290.699-458.82-689.053-1061.22-1077.199 M1944.71,328.567
	c-536.13,222.675-811.149,542.959-963.331,784.073c-134.141,212.521-179.745,287.9-365.318,489.2
	c-349.984,379.521-860.42,704.07-1251.149,537.62c-234.097-99.71-293.382-277.87-507.711-620.34
	c-175.51-280.44-470.3-670.028-1062.59-1055.452 M1959.82,410.388c-526.07,183.692-803.08,483.999-957.351,707.162
	c-139.146,201.28-200.01,271.87-398.22,472.29c-360.375,364.42-835.804,671.94-1219.52,523.46
	c-242.96-94.02-321.079-264.32-550.73-603.109c-183.14-270.261-481.77-650.994-1064-1033.815 M1974.93,492.208
	c-516.069,144.662-795.52,425.027-951.369,630.242c-144.507,190.279-220.046,255.99-431.108,455.399
	c-370.159,349.7-811.801,640.671-1187.904,509.28c-252.14-88.09-348.537-250.81-593.738-585.85
	c-190.45-260.221-493.29-631.972-1065.4-1012.132 M1989.99,574.049c-506.04,105.722-788.53,366.027-945.391,553.321
	c-150.292,179.46-239.848,240.29-463.989,438.5c-379.377,335.4-788.333,610.25-1156.29,495.1
	c-261.627-81.88-375.559-237.41-636.761-568.609c-197.34-250.301-504.65-612.922-1066.74-990.448 M2005.14,655.861
	c-496.02,66.748-782.17,306.907-939.399,476.409c-156.612,168.789-259.317,224.85-496.897,421.59
	C180.688,1875.39-196.464,2134.55-555.816,2034.8c-271.41-75.32-402.232-224.21-679.774-551.37
	c-204.05-240.529-516.18-593.933-1068.25-968.741 M2020.24,737.648c-486.01,27.775-776.49,247.568-933.42,399.502
	c-163.364,158.14-278.611,209.52-529.782,404.689C160.561,1849.9-185.546,2093.72-536.005,2008.59
	c-281.358-68.34-428.57-211.2-722.795-534.12c-210.43-230.949-527.65-574.899-1069.57-947.065 M2035.35,819.514
	c-476.05-11.196-771.5,187.916-927.449,322.576c-170.741,147.44-297.691,194.53-562.672,387.79
	c-404.5,295.01-720.139,523.86-1061.412,452.58c-291.527-60.89-454.575-198.47-765.807-516.88
	c-216.56-221.56-539.13-555.871-1070.979-925.354 M2050.46,901.335c-465.979-50.194-767.19,127.845-921.47,245.655
	c-178.742,136.52-316.641,179.84-595.56,370.899c-412.28,282.37-697.907,496.551-1029.797,438.4
	c-301.841-52.88-480.283-186.02-808.824-499.63c-222.48-212.38-550.6-536.858-1072.36-903.685 M2065.57,983.167
	c-455.971-89.179-763.521,67.223-915.49,168.743c-187.367,125.16-335.336,165.399-628.458,353.99
	c-419.851,270.13-675.762,469.909-998.183,424.22c-312.207-44.25-505.704-173.9-851.829-482.391
	c-228.23-203.409-562.06-517.823-1073.76-881.989 M2080.68,1064.99c-445.96-128.152-760.399,6-909.51,91.83
	c-196.604,113.159-353.944,151.29-661.326,337.08c-427.277,258.239-653.678,443.85-966.562,410.06
	c-322.715-34.92-530.888-162.18-894.852-465.16c-233.87-194.66-573.56-498.824-1075.16-860.264 M2095.79,1146.81
	c-435.95-167.137-757.7-55.92-903.479,14.9c-206.385,100.25-372.448,137.5-694.253,320.19
	c-434.608,246.729-631.52,418.46-934.937,395.88c-333.172-24.801-555.861-150.82-937.871-447.94
	c-239.35-186.149-585.01-479.776-1076.55-838.617 M2110.89,1228.64c-425.979-206.109-755.26-118.6-897.54-62.01
	c-216.569,86.141-390.842,124.021-727.138,303.28c-441.84,235.59-609.273,393.55-903.316,381.72
	c-343.556-13.85-580.631-139.84-980.886-430.66c-244.78-177.859-596.479-460.76-1077.93-816.931 M2125.939,1310.47
	c-415.909-245.09-746.25-140.859-891.56-138.92c-237.667,3.16-409.173,110.87-760.034,286.391
	c-449.083,224.68-586.796,369.1-871.634,367.52c-353.793-1.939-605.272-129.37-1023.902-413.42
	c-250.15-169.75-607.94-441.726-1079.32-795.192 M2141.1,1392.28c-405.899-284.061-746.85-211.83-885.569-215.83
	c-243.15-7.01-427.452,98.02-792.93,269.49C6.179,1660.11-101.54,1791.06-377.474,1799.28
	c-363.808,10.92-629.796-119.25-1066.916-396.19c-255.53-161.86-619.42-422.705-1080.72-773.547 M2156.21,1474.11
	c-395.89-323.061-746.1-284.44-879.6-292.761c-249.19-15.51-445.675,85.511-825.81,252.65
	c-463.739,203.83-541.138,321.41-808.445,339.18c-373.516,24.82-654.246-109.6-1109.936-378.93
	c-260.88-154.19-630.9-403.702-1082.12-751.864 M2171.32,1555.93c-385.87-362.029-743.36-376.43-873.631-369.67
	c-256.56,13.41-463.905,73.28-858.702,235.73c-471.146,193.81-517.75,298.04-776.829,325
	c-382.8,39.79-678.638-100.44-1152.968-361.72c-266.28-146.7-642.36-384.65-1083.5-730.177 M2186.43,1637.75
	c-375.85-401-738.869-442.22-867.63-446.58c-264.739-8.94-482.132,61.34-891.602,218.81
	c-478.624,184.03-493.91,274.931-745.212,310.83c-391.587,55.95-703.006-91.539-1195.966-344.439
	c-271.73-139.4-653.83-365.62-1084.91-708.481 M2201.54,1719.59c-365.851-439.99-733.29-508.22-861.66-523.51
	c-271.61-32.38-500.354,49.7-924.496,201.899C-70.825,1572.44-54.181,1649.96-298.21,1694.63
	c-399.768,73.13-727.38-83.14-1238.98-327.189c-277.22-132.23-665.29-346.62-1086.3-686.81"/>
</svg>
