<svg width="18" height="19" viewBox="0 0 18 19" fill="none" xmlns="http://www.w3.org/2000/svg">
<path fill-rule="evenodd" clip-rule="evenodd" d="M8.655 17.1754L8.7075 17.2054L8.7285 17.2174C8.81177 17.2624 8.90495 17.286 8.99963 17.286C9.0943 17.286 9.18748 17.2624 9.27075 17.2174L9.29175 17.2061L9.345 17.1754C9.63834 17.0014 9.92457 16.8158 10.203 16.6189C10.9238 16.11 11.5973 15.5372 12.2153 14.9074C13.6733 13.4149 15.1875 11.1724 15.1875 8.28711C15.1875 6.64608 14.5356 5.07227 13.3752 3.91189C12.2148 2.7515 10.641 2.09961 9 2.09961C7.35897 2.09961 5.78516 2.7515 4.62478 3.91189C3.4644 5.07227 2.8125 6.64608 2.8125 8.28711C2.8125 11.1716 4.3275 13.4149 5.78475 14.9074C6.40248 15.5371 7.07571 16.1099 7.79625 16.6189C8.07493 16.8158 8.36141 17.0014 8.655 17.1754ZM9 10.5371C9.59674 10.5371 10.169 10.3001 10.591 9.8781C11.0129 9.45614 11.25 8.88385 11.25 8.28711C11.25 7.69037 11.0129 7.11808 10.591 6.69612C10.169 6.27416 9.59674 6.03711 9 6.03711C8.40326 6.03711 7.83097 6.27416 7.40901 6.69612C6.98705 7.11808 6.75 7.69037 6.75 8.28711C6.75 8.88385 6.98705 9.45614 7.40901 9.8781C7.83097 10.3001 8.40326 10.5371 9 10.5371Z" fill="#9E38FE"/>
<path fill-rule="evenodd" clip-rule="evenodd" d="M8.655 17.1754L8.7075 17.2054L8.7285 17.2174C8.81177 17.2624 8.90495 17.286 8.99963 17.286C9.0943 17.286 9.18748 17.2624 9.27075 17.2174L9.29175 17.2061L9.345 17.1754C9.63834 17.0014 9.92457 16.8158 10.203 16.6189C10.9238 16.11 11.5973 15.5372 12.2153 14.9074C13.6733 13.4149 15.1875 11.1724 15.1875 8.28711C15.1875 6.64608 14.5356 5.07227 13.3752 3.91189C12.2148 2.7515 10.641 2.09961 9 2.09961C7.35897 2.09961 5.78516 2.7515 4.62478 3.91189C3.4644 5.07227 2.8125 6.64608 2.8125 8.28711C2.8125 11.1716 4.3275 13.4149 5.78475 14.9074C6.40248 15.5371 7.07571 16.1099 7.79625 16.6189C8.07493 16.8158 8.36141 17.0014 8.655 17.1754ZM9 10.5371C9.59674 10.5371 10.169 10.3001 10.591 9.8781C11.0129 9.45614 11.25 8.88385 11.25 8.28711C11.25 7.69037 11.0129 7.11808 10.591 6.69612C10.169 6.27416 9.59674 6.03711 9 6.03711C8.40326 6.03711 7.83097 6.27416 7.40901 6.69612C6.98705 7.11808 6.75 7.69037 6.75 8.28711C6.75 8.88385 6.98705 9.45614 7.40901 9.8781C7.83097 10.3001 8.40326 10.5371 9 10.5371Z" fill="url(#paint0_linear_607_1633)"/>
<defs>
<linearGradient id="paint0_linear_607_1633" x1="36.6442" y1="9.69279" x2="-2.82611" y2="9.69279" gradientUnits="userSpaceOnUse">
<stop stop-color="#2CD9FF"/>
<stop offset="1" stop-color="#AD00FF"/>
</linearGradient>
</defs>
</svg>
