<svg width="230" height="82" viewBox="0 0 230 82" fill="none" xmlns="http://www.w3.org/2000/svg">
<path d="M115 1H197.2C205.458 1 209.37 1.01038 212.532 1.94714C220 4.15915 225.841 10 228.053 17.4677C228.99 20.6301 229 24.5424 229 32.8V36.4517C229 44.3735 228.99 48.1235 228.067 51.2647C226.184 57.6705 221.611 62.9421 215.535 65.7101C212.556 67.0674 208.845 67.6068 201.002 68.7252L119.602 80.3335C118.239 80.5279 117.595 80.6194 116.952 80.6742C115.653 80.7849 114.347 80.7849 113.048 80.6742C112.405 80.6194 111.761 80.5279 110.398 80.3335L28.9975 68.7252C21.1551 67.6068 17.444 67.0674 14.4646 65.7101C8.38881 62.9421 3.81564 57.6705 1.93315 51.2647C1.01004 48.1235 1 44.3735 1 36.4517V32.8C1 24.5424 1.01038 20.6301 1.94714 17.4677C4.15915 10 10 4.15915 17.4677 1.94714C20.6301 1.01038 24.5424 1 32.8 1H115Z" fill="#9E38FE"/>
<path d="M115 1H197.2C205.458 1 209.37 1.01038 212.532 1.94714C220 4.15915 225.841 10 228.053 17.4677C228.99 20.6301 229 24.5424 229 32.8V36.4517C229 44.3735 228.99 48.1235 228.067 51.2647C226.184 57.6705 221.611 62.9421 215.535 65.7101C212.556 67.0674 208.845 67.6068 201.002 68.7252L119.602 80.3335C118.239 80.5279 117.595 80.6194 116.952 80.6742C115.653 80.7849 114.347 80.7849 113.048 80.6742C112.405 80.6194 111.761 80.5279 110.398 80.3335L28.9975 68.7252C21.1551 67.6068 17.444 67.0674 14.4646 65.7101C8.38881 62.9421 3.81564 57.6705 1.93315 51.2647C1.01004 48.1235 1 44.3735 1 36.4517V32.8C1 24.5424 1.01038 20.6301 1.94714 17.4677C4.15915 10 10 4.15915 17.4677 1.94714C20.6301 1.01038 24.5424 1 32.8 1H115Z" fill="url(#paint0_linear_674_497)"/>
<path d="M115 1H197.2C205.458 1 209.37 1.01038 212.532 1.94714C220 4.15915 225.841 10 228.053 17.4677C228.99 20.6301 229 24.5424 229 32.8V36.4517C229 44.3735 228.99 48.1235 228.067 51.2647C226.184 57.6705 221.611 62.9421 215.535 65.7101C212.556 67.0674 208.845 67.6068 201.002 68.7252L119.602 80.3335C118.239 80.5279 117.595 80.6194 116.952 80.6742C115.653 80.7849 114.347 80.7849 113.048 80.6742C112.405 80.6194 111.761 80.5279 110.398 80.3335L28.9975 68.7252C21.1551 67.6068 17.444 67.0674 14.4646 65.7101C8.38881 62.9421 3.81564 57.6705 1.93315 51.2647C1.01004 48.1235 1 44.3735 1 36.4517V32.8C1 24.5424 1.01038 20.6301 1.94714 17.4677C4.15915 10 10 4.15915 17.4677 1.94714C20.6301 1.01038 24.5424 1 32.8 1H115Z" stroke="white" stroke-width="2"/>
<defs>
<linearGradient id="paint0_linear_674_497" x1="628.79" y1="41" x2="-104.798" y2="41.0001" gradientUnits="userSpaceOnUse">
<stop stop-color="#2CD9FF"/>
<stop offset="1" stop-color="#AD00FF"/>
</linearGradient>
</defs>
</svg>
